<svg width="2407" height="200" viewBox="0 0 2407 200" fill="none" xmlns="http://www.w3.org/2000/svg">
<path d="M2.38419e-07 196C1.49333 196 2.98667 194.507 4.48 191.52C5.97333 188.533 6.72 183.627 6.72 176.8V23.2C6.72 16.3733 5.97333 11.5733 4.48 8.79999C2.98667 5.81332 1.49333 4.21332 2.38419e-07 3.99999H75.52C74.24 4.21332 73.6 5.91999 73.6 9.11998C73.8133 12.1067 75.6267 17.0133 79.04 23.84C80.5333 26.6133 82.6667 30.9867 85.44 36.96C88.4267 42.9333 91.7333 49.8667 95.36 57.76C99.2 65.6533 103.147 74.08 107.2 83.04C111.467 92 115.733 100.96 120 109.92C124.267 118.88 128.213 127.307 131.84 135.2H132.16C136 127.307 140.053 118.987 144.32 110.24C148.8 101.28 153.173 92.32 157.44 83.36C161.707 74.4 165.76 65.9733 169.6 58.08C173.44 49.9733 176.747 42.9333 179.52 36.96C182.293 30.7733 184.32 26.1867 185.6 23.2C188.587 16.3733 190.187 11.4667 190.4 8.47999C190.613 5.49333 190.187 3.99999 189.12 3.99999H264.64C263.147 3.99999 261.653 5.49333 260.16 8.47999C258.667 11.4667 257.92 16.48 257.92 23.52V176.8C257.92 183.627 258.667 188.533 260.16 191.52C261.653 194.507 263.147 196 264.64 196H202.88C204.373 196 205.76 194.507 207.04 191.52C208.533 188.533 209.28 183.627 209.28 176.8V73.12H208.64C205.227 79.52 201.6 86.56 197.76 94.24C193.92 101.92 189.973 109.707 185.92 117.6C182.08 125.493 178.347 133.173 174.72 140.64C171.093 148.107 167.787 154.933 164.8 161.12C161.813 167.307 159.36 172.533 157.44 176.8C154.453 183.413 152.853 188.213 152.64 191.2C152.64 194.187 153.173 195.787 154.24 196H109.44C110.507 195.787 110.933 194.187 110.72 191.2C110.72 188.213 109.227 183.413 106.24 176.8C104.533 172.96 102.187 167.947 99.2 161.76C96.4267 155.573 93.2267 148.853 89.6 141.6C86.1867 134.133 82.56 126.453 78.72 118.56C74.88 110.453 71.04 102.56 67.2 94.88C63.5733 86.9867 60.16 79.7333 56.96 73.12H56V176.8C56 183.627 56.7467 188.533 58.24 191.52C59.7333 194.507 61.2267 196 62.72 196H2.38419e-07ZM279.922 196C280.989 196 282.589 194.507 284.723 191.52C287.069 188.533 289.736 183.52 292.723 176.48C294.216 173.28 296.563 167.84 299.763 160.16C303.176 152.267 307.016 143.2 311.283 132.96C315.763 122.507 320.349 111.627 325.043 100.32C329.949 89.0133 334.536 78.1333 338.803 67.68C343.283 57.2267 347.123 48.0533 350.323 40.16C353.736 32.2667 356.083 26.6133 357.363 23.2C360.136 16.3733 361.629 11.4667 361.843 8.47999C362.056 5.49333 361.629 3.99999 360.562 3.99999H430.323C429.469 3.99999 429.149 5.49333 429.363 8.47999C429.576 11.2533 431.069 16.16 433.843 23.2C435.123 26.6133 437.363 32.2667 440.562 40.16C443.763 47.84 447.496 56.9067 451.763 67.36C456.029 77.6 460.509 88.3733 465.203 99.68C469.896 110.987 474.376 121.867 478.643 132.32C482.909 142.56 486.749 151.627 490.163 159.52C493.576 167.413 496.029 173.067 497.523 176.48C500.723 183.52 503.816 188.533 506.803 191.52C509.789 194.507 512.029 196 513.523 196H440.883C442.589 195.787 443.976 194.187 445.042 191.2C446.323 188 446.323 183.093 445.042 176.48C444.829 174.987 444.616 173.813 444.403 172.96C444.189 171.893 443.763 170.4 443.123 168.48C442.269 165.28 441.309 163.04 440.243 161.76C439.176 160.267 437.363 159.413 434.803 159.2C432.456 158.987 428.509 158.88 422.963 158.88H367.923C362.163 158.88 357.896 159.093 355.123 159.52C352.349 159.733 350.429 160.48 349.363 161.76C348.296 163.04 347.443 165.173 346.803 168.16C346.589 169.227 346.269 170.613 345.843 172.32C345.629 174.027 345.416 175.413 345.203 176.48C343.709 183.307 343.283 188.213 343.923 191.2C344.776 194.187 345.843 195.787 347.123 196H279.922ZM376.243 123.68H413.683C419.869 123.68 423.283 123.147 423.923 122.08C424.563 121.013 424.243 118.667 422.963 115.04C420.189 108.213 417.416 101.28 414.643 94.24C411.869 86.9867 409.203 79.9467 406.643 73.12C404.296 66.2933 402.163 60 400.243 54.24C398.536 48.2667 397.043 43.2533 395.763 39.2H395.123C392.136 47.0933 389.043 55.4133 385.843 64.16C382.643 72.9067 379.656 81.0133 376.883 88.48C374.109 95.9467 371.869 102.133 370.163 107.04C368.456 111.733 367.603 114.08 367.603 114.08C366.109 117.493 365.576 119.947 366.003 121.44C366.429 122.933 369.843 123.68 376.243 123.68ZM530.313 196C531.806 196 533.299 194.507 534.793 191.52C536.286 188.533 537.033 183.627 537.033 176.8V23.2C537.033 16.3733 536.286 11.5733 534.793 8.79999C533.299 5.81332 531.806 4.21332 530.313 3.99999H593.033C591.539 3.99999 591.113 5.49333 591.753 8.47999C592.606 11.4667 596.126 16.5867 602.313 23.84C604.019 25.5467 606.793 28.7467 610.633 33.44C614.686 37.92 619.486 43.36 625.033 49.76C630.579 56.16 636.446 63.0933 642.633 70.56C649.033 78.0267 655.433 85.4933 661.833 92.96C668.446 100.427 674.739 107.573 680.713 114.4H681.033V23.2C681.033 16.3733 680.286 11.5733 678.792 8.79999C677.299 5.81332 675.806 4.21332 674.312 3.99999H737.033C735.539 3.99999 734.046 5.49333 732.553 8.47999C731.059 11.4667 730.313 16.48 730.313 23.52V176.8C730.313 183.627 731.059 188.533 732.553 191.52C734.046 194.507 735.539 196 737.033 196H681.993C683.273 196 683.379 194.507 682.313 191.52C681.459 188.533 678.153 183.413 672.393 176.16C669.406 172.32 665.459 167.413 660.553 161.44C655.646 155.253 650.099 148.427 643.913 140.96C637.939 133.493 631.646 125.707 625.033 117.6C618.419 109.493 611.806 101.6 605.193 93.92C598.793 86.0267 592.819 78.7733 587.273 72.16H586.313V176.8C586.313 183.627 587.059 188.533 588.553 191.52C590.046 194.507 591.539 196 593.033 196H530.313ZM752.422 196C753.489 196 755.089 194.507 757.223 191.52C759.569 188.533 762.236 183.52 765.223 176.48C766.716 173.28 769.063 167.84 772.263 160.16C775.676 152.267 779.516 143.2 783.783 132.96C788.263 122.507 792.849 111.627 797.543 100.32C802.449 89.0133 807.036 78.1333 811.303 67.68C815.783 57.2267 819.623 48.0533 822.823 40.16C826.236 32.2667 828.583 26.6133 829.863 23.2C832.636 16.3733 834.129 11.4667 834.343 8.47999C834.556 5.49333 834.129 3.99999 833.062 3.99999H902.823C901.969 3.99999 901.649 5.49333 901.863 8.47999C902.076 11.2533 903.569 16.16 906.343 23.2C907.623 26.6133 909.863 32.2667 913.062 40.16C916.263 47.84 919.996 56.9067 924.263 67.36C928.529 77.6 933.009 88.3733 937.703 99.68C942.396 110.987 946.876 121.867 951.143 132.32C955.409 142.56 959.249 151.627 962.663 159.52C966.076 167.413 968.529 173.067 970.023 176.48C973.223 183.52 976.316 188.533 979.303 191.52C982.289 194.507 984.529 196 986.023 196H913.383C915.089 195.787 916.476 194.187 917.542 191.2C918.823 188 918.823 183.093 917.542 176.48C917.329 174.987 917.116 173.813 916.903 172.96C916.689 171.893 916.263 170.4 915.623 168.48C914.769 165.28 913.809 163.04 912.743 161.76C911.676 160.267 909.863 159.413 907.303 159.2C904.956 158.987 901.009 158.88 895.463 158.88H840.423C834.663 158.88 830.396 159.093 827.623 159.52C824.849 159.733 822.929 160.48 821.863 161.76C820.796 163.04 819.943 165.173 819.303 168.16C819.089 169.227 818.769 170.613 818.343 172.32C818.129 174.027 817.916 175.413 817.703 176.48C816.209 183.307 815.783 188.213 816.423 191.2C817.276 194.187 818.343 195.787 819.623 196H752.422ZM848.743 123.68H886.183C892.369 123.68 895.783 123.147 896.423 122.08C897.063 121.013 896.743 118.667 895.463 115.04C892.689 108.213 889.916 101.28 887.143 94.24C884.369 86.9867 881.703 79.9467 879.143 73.12C876.796 66.2933 874.663 60 872.743 54.24C871.036 48.2667 869.543 43.2533 868.263 39.2H867.623C864.636 47.0933 861.543 55.4133 858.343 64.16C855.143 72.9067 852.156 81.0133 849.383 88.48C846.609 95.9467 844.369 102.133 842.663 107.04C840.956 111.733 840.103 114.08 840.103 114.08C838.609 117.493 838.076 119.947 838.503 121.44C838.929 122.933 842.343 123.68 848.743 123.68ZM1106.49 199.2C1083.24 199.2 1062.65 198.133 1044.73 196C1026.81 193.867 1013.91 191.733 1006.01 189.6V180L999.613 139.36C1003.67 142.773 1010.39 146.4 1019.77 150.24C1029.16 154.08 1041.21 157.387 1055.93 160.16C1070.65 162.72 1087.72 164 1107.13 164C1119.08 164 1128.25 163.253 1134.65 161.76C1141.05 160.053 1145.43 157.707 1147.77 154.72C1150.12 151.733 1151.29 148.213 1151.29 144.16C1151.29 139.04 1149.59 135.093 1146.17 132.32C1142.76 129.333 1136.57 126.88 1127.61 124.96C1118.87 123.04 1106.39 121.013 1090.17 118.88C1070.76 116.32 1054.55 112.8 1041.53 108.32C1028.52 103.84 1018.81 97.5467 1012.41 89.44C1006.01 81.12 1002.81 70.1333 1002.81 56.48C1002.81 45.3867 1005.69 35.68 1011.45 27.36C1017.21 19.04 1026.49 12.5333 1039.29 7.84C1052.09 3.14666 1069.05 0.799995 1090.17 0.799995C1112.36 0.799995 1131.35 1.86666 1147.13 3.99999C1162.92 6.13332 1173.8 8.26665 1179.77 10.4V20L1189.37 55.2C1184.04 52.4267 1176.36 49.5467 1166.33 46.56C1156.31 43.5733 1144.68 41.12 1131.45 39.2C1118.23 37.0667 1103.93 36 1088.57 36C1078.97 36 1071.51 36.8533 1066.17 38.56C1060.84 40.0533 1057 42.2933 1054.65 45.28C1052.52 48.0533 1051.45 51.5733 1051.45 55.84C1051.45 60.96 1053.37 65.12 1057.21 68.32C1061.27 71.3067 1067.77 73.76 1076.73 75.68C1085.69 77.6 1097.75 79.4133 1112.89 81.12C1136.15 83.68 1154.07 87.52 1166.65 92.64C1179.24 97.76 1187.88 104.373 1192.57 112.48C1197.48 120.373 1199.93 129.973 1199.93 141.28C1199.93 151.093 1198.12 159.733 1194.49 167.2C1190.87 174.453 1185.21 180.427 1177.53 185.12C1170.07 189.813 1160.36 193.333 1148.41 195.68C1136.68 198.027 1122.71 199.2 1106.49 199.2ZM1412.19 199.2C1375.49 199.2 1347.97 191.307 1329.62 175.52C1311.49 159.52 1302.43 134.347 1302.43 100C1302.43 80.16 1306.16 62.88 1313.63 48.16C1321.09 33.2267 1332.93 21.6 1349.15 13.28C1365.36 4.95999 1386.37 0.799995 1412.19 0.799995C1432.45 0.799995 1449.31 1.86666 1462.75 3.99999C1476.19 6.13332 1485.25 8.26665 1489.95 10.4V20L1496.35 55.2C1492.29 52.4267 1486.21 49.5467 1478.11 46.56C1470.21 43.5733 1460.72 41.12 1449.62 39.2C1438.53 37.0667 1426.27 36 1412.83 36C1398.11 36 1386.16 38.3467 1376.99 43.04C1368.03 47.7333 1361.41 54.88 1357.15 64.48C1353.09 73.8667 1351.07 85.7067 1351.07 100C1351.07 114.293 1353.09 126.133 1357.15 135.52C1361.41 144.907 1368.67 151.947 1378.91 156.64C1389.36 161.333 1403.76 163.68 1422.11 163.68C1440.45 163.68 1455.71 161.12 1467.87 156C1480.24 150.88 1488.67 145.973 1493.15 141.28V150.88L1496.35 183.2C1492.72 186.613 1483.87 190.133 1469.79 193.76C1455.92 197.387 1436.72 199.2 1412.19 199.2ZM1525 196C1526.49 196 1527.99 194.507 1529.48 191.52C1530.97 188.533 1531.72 183.627 1531.72 176.8V23.2C1531.72 16.3733 1530.97 11.5733 1529.48 8.79999C1527.99 5.81332 1526.49 4.21332 1525 3.99999H1587.72C1586.23 3.99999 1584.73 5.49333 1583.24 8.47999C1581.75 11.4667 1581 16.48 1581 23.52V150.56C1581 155.253 1581.53 158.133 1582.6 159.2C1583.88 160.053 1587.72 160.48 1594.12 160.48H1671.24C1683.61 160.48 1693.53 159.093 1701 156.32C1708.68 153.333 1713.69 150.453 1716.04 147.68L1706.44 186.08V196H1525ZM1823.3 199.2C1786.61 199.2 1760.05 190.453 1743.62 172.96C1727.41 155.253 1719.3 130.613 1719.3 99.04C1719.3 78.7733 1722.82 61.3867 1729.86 46.88C1737.11 32.16 1748.31 20.8533 1763.46 12.96C1778.82 4.85333 1798.77 0.799995 1823.3 0.799995H1833.22C1857.33 0.799995 1876.85 4.74666 1891.78 12.64C1906.93 20.5333 1918.02 31.84 1925.06 46.56C1932.1 61.28 1935.62 78.7733 1935.62 99.04C1935.62 130.613 1927.51 155.253 1911.3 172.96C1895.09 190.453 1869.06 199.2 1833.22 199.2H1823.3ZM1826.5 163.68H1830.02C1843.03 163.68 1853.7 161.547 1862.02 157.28C1870.55 153.013 1876.85 146.187 1880.9 136.8C1884.95 127.2 1886.98 114.613 1886.98 99.04C1886.98 83.8933 1884.85 71.7333 1880.58 62.56C1876.53 53.1733 1870.23 46.4533 1861.7 42.4C1853.38 38.1333 1842.82 36 1830.02 36H1826.5C1813.27 36 1802.29 38.24 1793.54 42.72C1784.79 46.9867 1778.29 53.7067 1774.02 62.88C1769.97 72.0533 1767.94 84.1067 1767.94 99.04C1767.94 114.613 1770.07 127.2 1774.34 136.8C1778.82 146.187 1785.33 153.013 1793.86 157.28C1802.61 161.547 1813.49 163.68 1826.5 163.68ZM2064.54 199.2C2042.99 199.2 2025.28 195.787 2011.42 188.96C1997.55 182.133 1987.31 172.32 1980.7 159.52C1974.08 146.507 1970.78 131.04 1970.78 113.12V22.88C1970.78 16.0533 1970.03 11.2533 1968.54 8.47999C1967.26 5.49333 1965.87 3.99999 1964.38 3.99999H2025.82C2024.32 4.21332 2022.83 5.70666 2021.34 8.47999C2020.06 11.2533 2019.42 16.0533 2019.42 22.88V112.48C2019.42 126.133 2021.34 136.693 2025.18 144.16C2029.02 151.627 2034.35 156.747 2041.18 159.52C2048 162.293 2055.9 163.68 2064.86 163.68H2068.38C2075.42 163.68 2081.6 162.933 2086.94 161.44C2092.48 159.947 2097.07 157.387 2100.7 153.76C2104.54 150.133 2107.42 145.013 2109.34 138.4C2111.47 131.573 2112.54 122.933 2112.54 112.48V22.88C2112.54 16.0533 2111.79 11.2533 2110.3 8.47999C2109.02 5.49333 2107.63 3.99999 2106.14 3.99999H2167.58C2166.08 4.21332 2164.59 5.81332 2163.1 8.79999C2161.82 11.5733 2161.18 16.3733 2161.18 23.2V113.12C2161.18 131.04 2157.76 146.507 2150.94 159.52C2144.32 172.32 2134.08 182.133 2120.22 188.96C2106.56 195.787 2089.07 199.2 2067.74 199.2H2064.54ZM2199.69 196C2201.18 196 2202.67 194.507 2204.17 191.52C2205.66 188.533 2206.41 183.627 2206.41 176.8V23.2C2206.41 16.3733 2205.66 11.5733 2204.17 8.79999C2202.67 5.81332 2201.18 4.21332 2199.69 3.99999H2300.17C2318.94 3.99999 2334.73 5.81333 2347.53 9.44C2360.33 13.0667 2370.57 18.08 2378.25 24.48C2386.14 30.88 2392.11 38.24 2396.17 46.56C2400.22 54.6667 2402.89 63.3067 2404.17 72.48C2405.66 81.6533 2406.41 90.9333 2406.41 100.32C2406.41 108.853 2405.66 117.707 2404.17 126.88C2402.89 135.84 2400.11 144.48 2395.85 152.8C2391.79 160.907 2385.82 168.267 2377.93 174.88C2370.25 181.28 2360.01 186.4 2347.21 190.24C2334.62 194.08 2318.94 196 2300.17 196H2199.69ZM2268.49 160.48H2281.61C2299.95 160.48 2314.67 158.987 2325.77 156C2336.86 152.8 2344.97 147.04 2350.09 138.72C2355.21 130.4 2357.77 118.347 2357.77 102.56V96.8C2357.77 80.16 2355.42 67.8933 2350.73 60C2346.03 51.8933 2338.14 46.56 2327.05 44C2315.95 41.44 2300.81 40.16 2281.61 40.16H2268.49C2262.3 40.16 2258.57 40.5867 2257.29 41.44C2256.22 42.08 2255.69 44.64 2255.69 49.12V150.88C2255.69 155.573 2256.22 158.347 2257.29 159.2C2258.57 160.053 2262.3 160.48 2268.49 160.48Z" fill="black"/>
</svg>
